<svg xmlns="http://www.w3.org/2000/svg" width="900.483" height="676.822" viewBox="0 0 900.483 676.822">
  <g id="그룹_1103" data-name="그룹 1103" transform="translate(-8.354)">
    <path id="패스_152" data-name="패스 152" d="M520.029,394.4a46.64,46.64,0,0,1-4.314-3.594l1.868-1.984a43.976,43.976,0,0,0,4.062,3.383Z" transform="translate(-111.773 -104.731)" fill="#e4e4e4"/>
    <path id="패스_153" data-name="패스 153" d="M506.763,374.244a45.942,45.942,0,0,1-4.9-10.764l2.6-.8a43.234,43.234,0,0,0,4.607,10.126Zm-6.9-22.417q-.04-.966-.04-1.934a46.04,46.04,0,0,1,1.065-9.846l2.662.583a43.322,43.322,0,0,0-1,9.262q0,.911.038,1.82Zm7.454-21.659-2.423-1.247a46.49,46.49,0,0,1,3.878-6.254,37.693,37.693,0,0,1,2.891-3.471l1.985,1.866a34.974,34.974,0,0,0-2.681,3.219,43.745,43.745,0,0,0-3.65,5.886Zm15.074-15.807-1.287-2.4a37.091,37.091,0,0,1,11.248-3.862l.462,2.686a34.362,34.362,0,0,0-10.423,3.578Zm31.925-.3a34.054,34.054,0,0,0-10.481-3.391l.409-2.694a36.772,36.772,0,0,1,11.318,3.662Z" transform="translate(-110.316 -97.318)" fill="#e4e4e4"/>
    <path id="패스_154" data-name="패스 154" d="M572.583,325.946a27.1,27.1,0,0,0-3.083-4.163l2.024-1.825a29.814,29.814,0,0,1,3.395,4.583Z" transform="translate(-116.704 -98.417)" fill="#e4e4e4"/>
    <path id="패스_155" data-name="패스 155" d="M457.664,294.031l-2.195-1.615c1.09-1.482,2.239-2.948,3.415-4.357l2.092,1.747C459.836,291.173,458.722,292.594,457.664,294.031Z" transform="translate(-106.249 -95.492)" fill="#e4e4e4"/>
    <path id="패스_156" data-name="패스 156" d="M593.791,287.678a68.141,68.141,0,0,0-6.937-8.184l1.933-1.92A70.893,70.893,0,0,1,596,286.086Zm-124.281-8.9-1.857-1.995a88.333,88.333,0,0,1,8.6-7.047l1.59,2.213a85.547,85.547,0,0,0-8.338,6.828Zm109.21-6.283a87.057,87.057,0,0,0-9.066-5.827l1.328-2.38a89.814,89.814,0,0,1,9.351,6.01Zm-91.742-6.266-1.3-2.4a88.727,88.727,0,0,1,10.09-4.67l.987,2.54a86.032,86.032,0,0,0-9.78,4.526Zm72.956-4.207a85.492,85.492,0,0,0-10.228-3.383L550.4,256a88.3,88.3,0,0,1,10.555,3.491Zm-52.907-3.587-.662-2.643a89.511,89.511,0,0,1,10.931-2.022l.328,2.706a86.781,86.781,0,0,0-10.6,1.96Zm32.106-1.863a86.216,86.216,0,0,0-10.751-.723l.012-2.725a89.069,89.069,0,0,1,11.092.746Z" transform="translate(-107.366 -92.289)" fill="#e4e4e4"/>
    <path id="패스_157" data-name="패스 157" d="M614.864,306.023c-.671-1.644-1.414-3.279-2.209-4.861l2.435-1.224c.827,1.646,1.6,3.347,2.3,5.056Z" transform="translate(-120.66 -96.581)" fill="#e4e4e4"/>
    <path id="패스_158" data-name="패스 158" d="M623.214,482.476l-.936-2.559c1.679-.614,3.371-1.272,5.029-1.954l1.037,2.52C626.653,481.179,624.928,481.85,623.214,482.476Z" transform="translate(-121.543 -112.903)" fill="#e4e4e4"/>
    <path id="패스_159" data-name="패스 159" d="M568.242,489.483l-.1-2.723c3.535-.129,7.109-.4,10.621-.806l.312,2.707C575.494,489.075,571.849,489.352,568.242,489.483Zm-10.866-.032c-3.61-.153-7.254-.451-10.83-.888l.33-2.7c3.5.427,7.076.72,10.615.87Zm32.437-2.458-.524-2.674c3.47-.679,6.957-1.506,10.364-2.456l.732,2.625c-3.476.969-7.033,1.812-10.573,2.506Zm-53.992-.17c-3.537-.719-7.088-1.589-10.554-2.586l.753-2.619c3.4.977,6.878,1.829,10.344,2.534Zm-20.87-6c-3.377-1.27-6.746-2.692-10.012-4.226l1.159-2.466c3.2,1.5,6.5,2.9,9.812,4.141ZM495.3,471.59c-3.125-1.782-6.226-3.716-9.218-5.748l1.531-2.254c2.933,1.992,5.974,3.888,9.037,5.634Z" transform="translate(-109.055 -111.585)" fill="#e4e4e4"/>
    <path id="패스_160" data-name="패스 160" d="M476.005,458.345c-1.421-1.161-2.83-2.37-4.186-3.593l1.825-2.023c1.323,1.194,2.7,2.374,4.084,3.506Z" transform="translate(-107.748 -110.589)" fill="#e4e4e4"/>
    <path id="패스_161" data-name="패스 161" d="M393.239,155.913l-1.4-2.338c1.565-.937,3.16-1.864,4.741-2.756l1.339,2.373C396.359,154.073,394.784,154.988,393.239,155.913Z" transform="translate(-100.415 -82.91)" fill="#e4e4e4"/>
    <path id="패스_162" data-name="패스 162" d="M657.013,190.333c-2.335-2.72-4.792-5.4-7.3-7.973l1.949-1.9c2.552,2.612,5.049,5.338,7.422,8.1Zm-15.1-15.461c-2.663-2.4-5.442-4.745-8.262-6.977l1.691-2.137c2.865,2.268,5.689,4.652,8.394,7.088Zm-16.947-13.434c-2.947-2.069-5.98-4.087-9.014-6l1.452-2.306c3.072,1.933,6.143,3.976,9.128,6.072Zm-18.318-11.525c-3.133-1.755-6.354-3.454-9.575-5.048l1.209-2.442c3.262,1.614,6.525,3.334,9.7,5.112Zm-197.7-4.6-1.216-2.438c3.259-1.625,6.6-3.186,9.942-4.64l1.089,2.5c-3.3,1.437-6.6,2.977-9.815,4.581Zm178.3-5c-3.3-1.426-6.677-2.785-10.043-4.038l.951-2.554c3.409,1.269,6.833,2.646,10.174,4.09Zm-158.453-3.652-.959-2.55c3.4-1.28,6.89-2.492,10.363-3.6l.828,2.6c-3.429,1.094-6.872,2.289-10.232,3.554Zm138.171-3.9c-3.425-1.078-6.927-2.081-10.407-2.982l.683-2.638c3.526.912,7.073,1.929,10.542,3.021Zm-117.54-2.679-.695-2.635c3.516-.927,7.108-1.776,10.675-2.525l.56,2.666c-3.523.74-7.07,1.579-10.541,2.494Zm96.585-2.745c-3.517-.72-7.1-1.358-10.66-1.9l.408-2.694c3.6.546,7.236,1.192,10.8,1.921Zm-75.391-1.7-.423-2.692c3.593-.565,7.252-1.045,10.876-1.427l.286,2.71c-3.579.378-7.192.852-10.74,1.41Zm53.988-1.542c-3.573-.356-7.206-.623-10.8-.8l.13-2.721c3.639.174,7.32.445,10.939.805Zm-32.452-.728-.147-2.721c3.638-.2,7.327-.3,10.965-.314l.008,2.725c-3.593.011-7.235.116-10.827.309Z" transform="translate(-101.872 -80.115)" fill="#e4e4e4"/>
    <path id="패스_163" data-name="패스 163" d="M692.857,210.943c-1.033-1.47-2.1-2.941-3.176-4.371l2.178-1.637c1.093,1.453,2.179,2.948,3.228,4.443Z" transform="translate(-127.722 -87.871)" fill="#e4e4e4"/>
    <path id="패스_164" data-name="패스 164" d="M556.02,696.343q-2.711-.348-5.418-.741l.391-2.7q2.685.389,5.374.735Z" transform="translate(-114.971 -132.61)" fill="#e4e4e4"/>
    <path id="패스_165" data-name="패스 165" d="M518.623,681.844c-3.647-.655-7.334-1.381-10.96-2.159l.572-2.665c3.6.771,7.253,1.492,10.87,2.141Zm-21.84-4.684c-3.6-.9-7.233-1.873-10.789-2.891l.75-2.619c3.527,1.009,7.127,1.974,10.7,2.867Zm-21.475-6.143c-3.533-1.141-7.089-2.356-10.57-3.611l.925-2.563c3.451,1.245,6.978,2.449,10.483,3.581ZM454.3,663.443c-3.439-1.372-6.905-2.824-10.3-4.314l1.095-2.495c3.369,1.478,6.807,2.917,10.218,4.278Zm-20.453-8.972c-3.343-1.6-6.7-3.283-9.988-5l1.26-2.416c3.257,1.7,6.59,3.365,9.906,4.955Zm-19.8-10.323c-3.216-1.816-6.457-3.717-9.632-5.652l1.418-2.327c3.149,1.919,6.364,3.8,9.553,5.605Zm-19.07-11.621c-3.1-2.031-6.2-4.144-9.236-6.278l1.569-2.228c3.007,2.117,6.089,4.213,9.162,6.228Zm-18.264-12.868c-2.963-2.249-5.912-4.585-8.766-6.943l1.736-2.1c2.825,2.334,5.744,4.646,8.677,6.873Zm-17.236-14.242c-2.762-2.481-5.507-5.054-8.16-7.646l1.9-1.949c2.626,2.565,5.344,5.112,8.077,7.568Zm-15.994-15.627c-2.544-2.7-5.065-5.5-7.492-8.3l2.061-1.783c2.4,2.778,4.9,5.543,7.415,8.218Zm-14.628-16.914c-2.309-2.909-4.585-5.9-6.767-8.9l2.2-1.6c2.159,2.969,4.413,5.934,6.7,8.813Z" transform="translate(-94.02 -120.642)" fill="#e4e4e4"/>
    <path id="패스_166" data-name="패스 166" d="M314.713,553.361q-1.517-2.283-2.983-4.591l2.3-1.461q1.451,2.285,2.952,4.544Z" transform="translate(-93.071 -119.261)" fill="#e4e4e4"/>
    <path id="패스_167" data-name="패스 167" d="M943.1,197.177l-33.964,31.268,26.992-45.29c-21.266-38.564-56.045-71.892-56.045-71.892s-72.156,69.131-72.156,123.472,32.3,73.315,72.156,73.315,72.155-18.974,72.155-73.315C952.239,222.639,948.658,209.812,943.1,197.177Z" transform="translate(-138.563 -79.283)" fill="#f2f2f2"/>
    <path id="패스_168" data-name="패스 168" d="M907.644,229.833v2.679c-.159,31.135-5.41,55.428-15.713,72.534-.146.252-.3.491-.451.743l-1.154-.7-1.1-.69c11.43-18.472,15.474-44.581,15.62-71.738.013-.875.027-1.764.013-2.652-.04-11.5-.742-23.126-1.87-34.424-.08-.875-.172-1.764-.265-2.652-1.565-14.9-3.819-29.146-6.126-41.518-.159-.875-.331-1.75-.5-2.612-3.991-20.925-8.062-36.081-8.99-39.436-.106-.411-.173-.636-.186-.689l1.26-.358.013-.013,1.273-.358c.013.053.239.809.61,2.215,1.419,5.251,5.105,19.506,8.725,38.309.159.849.331,1.724.49,2.6,1.883,10.038,3.726,21.256,5.185,33.031q.557,4.436.994,8.752c.106.888.2,1.777.278,2.652Q907.578,213.821,907.644,229.833Z" transform="translate(-145.805 -78.979)" fill="#fff"/>
    <path id="패스_169" data-name="패스 169" d="M895.7,151.93c-.888.119-1.79.239-2.705.332a73.147,73.147,0,0,1-7.479.385,71.159,71.159,0,0,1-30.764-6.948c-.557.7-1.114,1.406-1.684,2.122a73.8,73.8,0,0,0,32.448,7.479,75.68,75.68,0,0,0,7.983-.424c.9-.093,1.8-.212,2.692-.345a73.171,73.171,0,0,0,21.15-6.4q-.855-1.094-1.671-2.148A70.914,70.914,0,0,1,895.7,151.93Z" transform="translate(-142.702 -82.44)" fill="#fff"/>
    <path id="패스_170" data-name="패스 170" d="M900.893,198.333q-1.373.08-2.745.08c-.279.013-.57.013-.849.013a71.537,71.537,0,0,1-58.717-30.672c-.53.783-1.06,1.566-1.577,2.361A74.193,74.193,0,0,0,897.3,201.078c.371,0,.742,0,1.114-.013.928-.013,1.843-.04,2.758-.08a73.8,73.8,0,0,0,39.317-13.791c-.425-.782-.849-1.565-1.286-2.347A71.047,71.047,0,0,1,900.893,198.333Z" transform="translate(-141.229 -84.462)" fill="#fff"/>
    <path id="패스_171" data-name="패스 171" d="M902.035,236.951c-.928.079-1.856.133-2.785.172-.995.04-1.989.066-2.984.066A71.73,71.73,0,0,1,827.5,185.581c-.6,1.074-1.194,2.135-1.764,3.209a74.357,74.357,0,0,0,70.531,51.052c.994,0,1.989-.013,2.97-.066.942-.027,1.87-.08,2.8-.146a74.139,74.139,0,0,0,48.93-23.882c-.278-.981-.6-1.949-.915-2.93A71.5,71.5,0,0,1,902.035,236.951Z" transform="translate(-140.196 -86.097)" fill="#fff"/>
    <path id="패스_172" data-name="패스 172" d="M181.427,229.5,203.579,270l-37.442-37.119c-42.554,11.336-83.288,37.05-83.288,37.05s49.685,86.7,102.422,99.808,78.943-13.667,88.555-52.341-1.009-74.6-53.746-87.709C208.342,226.77,195.03,227.149,181.427,229.5Z" transform="translate(-72.086 -89.951)" fill="#f2f2f2"/>
    <path id="패스_173" data-name="패스 173" d="M202.872,282.858l2.6.646c30.177,7.664,52.486,18.62,66.6,32.745.209.2.4.414.612.617l-.96.95-.935.9c-15.169-15.548-39.532-25.771-65.852-32.463-.846-.224-1.705-.451-2.57-.653-11.167-2.734-22.622-4.857-33.858-6.489-.869-.134-1.753-.258-2.638-.382-14.842-2.077-29.207-3.324-41.77-4.069-.888-.057-1.779-.1-2.657-.141-21.27-1.174-36.96-.879-40.44-.787-.424,0-.659.014-.714.014l-.044-1.309-.01-.016L80.2,271.1c.055,0,.843-.036,2.3-.058,5.438-.11,20.161-.25,39.282.773.862.05,1.753.094,2.641.151,10.2.594,21.527,1.511,33.307,2.936q4.439.529,8.733,1.146c.888.111,1.772.236,2.641.369Q187.317,279.06,202.872,282.858Z" transform="translate(-71.843 -93.925)" fill="#fff"/>
    <path id="패스_174" data-name="패스 174" d="M124.366,269.689c-.1.891-.2,1.795-.331,2.705a73.158,73.158,0,0,1-1.431,7.351,71.16,71.16,0,0,1-14.164,28.179c.548.71,1.1,1.42,1.653,2.146a73.794,73.794,0,0,0,15.085-29.686,75.7,75.7,0,0,0,1.514-7.849c.127-.9.229-1.8.315-2.7a73.173,73.173,0,0,0-1.114-22.07q-1.268.566-2.488,1.1A70.915,70.915,0,0,1,124.366,269.689Z" transform="translate(-74.433 -91.798)" fill="#fff"/>
    <path id="패스_175" data-name="패스 175" d="M170.651,272.411q-.254,1.351-.585,2.683c-.054.273-.125.557-.192.827a71.537,71.537,0,0,1-43.928,49.585c.631.7,1.263,1.407,1.91,2.1a74.193,74.193,0,0,0,44.592-51.046c.09-.36.179-.721.256-1.084.211-.9.406-1.8.588-2.7a73.8,73.8,0,0,0-3.9-41.482c-.862.223-1.723.446-2.588.682A71.046,71.046,0,0,1,170.651,272.411Z" transform="translate(-76.038 -90.288)" fill="#fff"/>
    <path id="패스_176" data-name="패스 176" d="M208.407,278.749c-.147.92-.319,1.833-.5,2.744-.2.975-.415,1.946-.655,2.911a71.73,71.73,0,0,1-66.672,54.289c.9.838,1.784,1.673,2.689,2.486a74.357,74.357,0,0,0,66.557-56.135c.24-.965.467-1.933.652-2.9.2-.92.374-1.834.533-2.75a74.14,74.14,0,0,0-11.374-53.246c-1.019.034-2.036.109-3.065.181A71.5,71.5,0,0,1,208.407,278.749Z" transform="translate(-77.379 -89.816)" fill="#fff"/>
    <path id="패스_177" data-name="패스 177" d="M258.841,506.683l-8.3-8.451,10.177-15.561,17.418-28.994a6.779,6.779,0,1,1,8.281,3.63L272.04,488.261Z" transform="translate(-87.461 -109.797)" fill="#a0616a"/>
    <path id="패스_178" data-name="패스 178" d="M247.844,531.115a9.354,9.354,0,0,1-9.229,4.179,8.745,8.745,0,0,1-7.348-6.159,8.337,8.337,0,0,1,.919-6.961c5.552-9.36,15.793-21.722,15.9-21.845l.163-.2,17.272,3.742Z" transform="translate(-85.659 -114.935)" fill="#6c63ff"/>
    <path id="패스_179" data-name="패스 179" d="M391.746,154.868l-2.031.625L372.582,99.847A33.7,33.7,0,0,0,330.46,77.556h0l-117.894,36.3a33.7,33.7,0,0,0-22.291,42.122h0l93.989,305.279a33.7,33.7,0,0,0,42.122,22.291h0l117.894-36.3a33.7,33.7,0,0,0,22.291-42.122h0L401.909,195.1l2.031-.625Z" transform="translate(-81.798 -76.055)" fill="#3f3d56"/>
    <path id="패스_180" data-name="패스 180" d="M335.281,86.379l-15.389,4.738a11.956,11.956,0,0,1-5.733,19l-67.54,20.794a11.956,11.956,0,0,1-15.426-12.485L216.82,122.85a25.165,25.165,0,0,0-16.647,31.456l93.851,304.832a25.166,25.166,0,0,0,31.456,16.647h0l118.462-36.472a25.166,25.166,0,0,0,16.647-31.456h0L366.737,103.025A25.166,25.166,0,0,0,335.281,86.379Z" transform="translate(-82.74 -76.899)" fill="#fff"/>
    <path id="패스_181" data-name="패스 181" d="M844.471,763.535,567.912,664.122a26.3,26.3,0,0,1-15.837-33.612l144.17-401.074A26.3,26.3,0,0,1,729.858,213.6l276.559,99.413a26.3,26.3,0,0,1,15.836,33.612L878.083,747.7A26.3,26.3,0,0,1,844.471,763.535Z" transform="translate(-114.964 -88.524)" fill="#3f3d56"/>
    <path id="패스_182" data-name="패스 182" d="M852.366,749.618,574.832,649.856a8.108,8.108,0,0,1-4.882-10.361l145.126-403.73a8.108,8.108,0,0,1,10.361-4.882l277.533,99.762a8.108,8.108,0,0,1,4.882,10.361L862.727,744.736A8.108,8.108,0,0,1,852.366,749.618Z" transform="translate(-116.701 -90.206)" fill="#fff"/>
    <circle id="타원_42" data-name="타원 42" cx="2.235" cy="2.235" r="2.235" transform="translate(747.165 179.742)" fill="#fff"/>
    <circle id="타원_43" data-name="타원 43" cx="60.357" cy="60.357" r="60.357" transform="translate(161.967 200.395) rotate(-45)" fill="#6c63ff"/>
    <path id="패스_183" data-name="패스 183" d="M276.23,245.949l-29.875-20.266,2.609-3.843L273.7,238.619l17.876-55.92,4.422,1.413Z" transform="translate(-22.586 -16.75)" fill="#fff"/>
    <circle id="타원_44" data-name="타원 44" cx="76.446" cy="76.446" r="76.446" transform="translate(564.308 394.774) rotate(-45)" fill="#6c63ff"/>
    <path id="패스_184" data-name="패스 184" d="M718.881,465.679,707.9,421.294l5.71-1.411L722.7,456.63,786.889,419.1l2.967,5.075Z" transform="translate(-64.902 -38.424)" fill="#fff"/>
    <path id="패스_185" data-name="패스 185" d="M193.976,682.221H204.3l4.909-39.806H193.974Z" transform="translate(-17.784 -58.898)" fill="#a0616a"/>
    <path id="패스_186" data-name="패스 186" d="M262.078,758.585H282.4a12.953,12.953,0,0,1,12.952,12.951v.421H262.079Z" transform="translate(-88.519 -138.631)" fill="#2f2e41"/>
    <path id="패스_187" data-name="패스 187" d="M105.51,677.348l10.2,1.542,10.805-38.624-13.377-2.276Z" transform="translate(-9.673 -58.492)" fill="#a0616a"/>
    <path id="패스_188" data-name="패스 188" d="M174,753.275l20.1,3.037h0a12.953,12.953,0,0,1,10.87,14.743l-.063.416L172,766.5Z" transform="translate(-80.26 -138.144)" fill="#2f2e41"/>
    <path id="패스_189" data-name="패스 189" d="M235.943,555.171l24-5.227,13.46,38.477.421,148.573-19.59-.123L246.044,616.62,193.855,727.735,172.81,725.21,218.687,606.1s-2.525-21.044,5.471-31.567l-1.684-10.943Z" transform="translate(-80.334 -119.503)" fill="#2f2e41"/>
    <path id="패스_190" data-name="패스 190" d="M217.466,522.731a8.919,8.919,0,0,1,2.46-9.413L225,508.707l14.3-2.409,8.942-1.625,21.2,52.93-41.736,4.753c-3.063-.661-4.287-2.337-2.5-5.669Z" transform="translate(-84.386 -115.352)" fill="#6c63ff"/>
    <path id="패스_191" data-name="패스 191" d="M273.026,511.429l-1.194-11.785,17.671-5.782,31.721-11.739a6.779,6.779,0,1,1,4.193,8.01L294.845,505.3Z" transform="translate(-89.413 -112.815)" fill="#a0616a"/>
    <path id="패스_192" data-name="패스 192" d="M250.723,522.737a9.353,9.353,0,0,1-9.814-2.508,8.75,8.75,0,0,1-1.884-9.4,8.338,8.338,0,0,1,5.069-4.859c10.185-3.834,25.906-7.079,26.063-7.111l.25-.051,11.141,13.719Z" transform="translate(-86.347 -114.814)" fill="#6c63ff"/>
    <circle id="타원_45" data-name="타원 45" cx="15.698" cy="15.698" r="15.698" transform="translate(132.939 354.483)" fill="#a0616a"/>
    <path id="패스_193" data-name="패스 193" d="M219.584,504.033a60.093,60.093,0,0,1-7.271-.443l-.343-.042-2.529-13.728a23.16,23.16,0,0,1,17.308-26.7,2.152,2.152,0,0,1,2.143.664l.6-.21a18.62,18.62,0,0,1,23.713,11.451l.149.429-4.024,1.4a8.935,8.935,0,0,0-4.718,13.038l4.115,6.85-.438.219A63.6,63.6,0,0,1,219.584,504.033Z" transform="translate(-83.657 -111.488)" fill="#2f2e41"/>
    <path id="패스_196" data-name="패스 196" d="M919.09,639.313a6.847,6.847,0,0,0,0-10.5L914,539.235l-14.523,3.283,9.6,87.487a6.884,6.884,0,0,0,10.013,9.308Z" transform="translate(-146.957 -118.521)" fill="#9f616a"/>
    <path id="패스_197" data-name="패스 197" d="M985.726,652.143a6.846,6.846,0,0,1-.378-10.492l1.844-89.706,14.632,2.755L995.4,642.479a6.884,6.884,0,0,1-9.67,9.664Z" transform="translate(-154.622 -119.686)" fill="#9f616a"/>
    <path id="패스_198" data-name="패스 198" d="M923.517,730.3h11.394l3.25-26.581H923.515Z" transform="translate(-84.67 -64.518)" fill="#9f616a"/>
    <path id="패스_199" data-name="패스 199" d="M991.317,804.938h22.44a14.3,14.3,0,0,1,14.3,14.3v.466h-36.74Z" transform="translate(-155.377 -142.881)" fill="#2f2e41"/>
    <path id="패스_200" data-name="패스 200" d="M845.24,728.543h11.394l3.25-43.949H845.238Z" transform="translate(-77.493 -62.765)" fill="#9f616a"/>
    <path id="패스_201" data-name="패스 201" d="M913.04,804.938h22.44a14.3,14.3,0,0,1,14.3,14.3v.466h-36.74Z" transform="translate(-148.2 -142.881)" fill="#2f2e41"/>
    <circle id="타원_46" data-name="타원 46" cx="18.641" cy="18.641" r="18.641" transform="translate(795.004 344.785)" fill="#9f616a"/>
    <path id="패스_202" data-name="패스 202" d="M991.741,523.522s8.285.69,8.975,4.833,0,16.57,0,16.57,5.524,16.57,0,20.712-20.022,4.833-20.022,4.833Z" transform="translate(-154.403 -117.08)" fill="#e4e4e4"/>
    <path id="패스_203" data-name="패스 203" d="M914.558,626.895l-7.595,12.427s2.762,54.543,3.452,55.923a4.152,4.152,0,0,1,.69,2.762V705.6l2.071,66.279s-5.523,2.762,1.381,4.833,15.879,2.762,17.26-4.142,1.446-64.422,1.381-66.28l.69-2.761L944.936,662.8l25.545,56.614,15.189,63.518s22.988,2.655,18.845-6.321S990.5,700.769,990.5,700.769s-2.071-6.9-2.071-8.285-.69-2.071-.69-3.452-.691-5.524-.691-5.524l-4.833-43.5Z" transform="translate(-147.643 -126.557)" fill="#2f2e41"/>
    <path id="패스_204" data-name="패스 204" d="M920.232,510.6s-8.285-.69-10.356,6.214-19.331,33.14-15.879,35.9,29.688,12.427,30.378,11.737S920.232,510.6,920.232,510.6Z" transform="translate(-146.413 -115.893)" fill="#e4e4e4"/>
    <path id="패스_205" data-name="패스 205" d="M986.33,461.61c-.782-2.912-1.885-5.823-4.131-7.835a12.862,12.862,0,0,0-8.241-3.245,25.587,25.587,0,0,0-23.076-1.309,4.224,4.224,0,0,0-1.838-1.874l-.665,5.752-2.569-1.933q-.063,1.7-.126,3.4l-2.354-2.024c-.167,4.018,3.177,7.5,6.958,8.867s7.927,1.117,11.944.927c1.984-.094,4.243-.06,5.582,1.407,1.4,1.537,1.138,3.892,1.173,5.972.048,2.926,3.052,1.493,4.558,4a5.684,5.684,0,0,1,1.169,2.874,6.715,6.715,0,0,1-1.01,2.666c-1.109,2.29-3.314,9.416-2.261,11.733l5.845-3.271S990.116,475.707,986.33,461.61Z" transform="translate(-150.977 -110.072)" fill="#2f2e41"/>
    <path id="패스_206" data-name="패스 206" d="M979.874,561.38s13.808-35.211,13.118-37.973-17.917-14.093-17.917-14.093l-1.907-.239a3.134,3.134,0,0,0,.189-.757l.3-2.7a3.183,3.183,0,0,0-2.817-3.51l-21.89-2.4a3.182,3.182,0,0,0-3.51,2.816l-.257,2.338c-1.155-.286-1.207-.4-1.207-.4s-19.332,3.067-24.165,4.448-.69,53.852-.69,53.852-3.452,48.329-5.523,49.709,0,.691-2.071,6.214c-.273.728,3.542-3.339,5.178-2.417,10.772,6.073,54.455,20.276,65.244,19.677,3.449-36-3.452-47.639-3.452-47.639Z" transform="translate(-148.06 -114.895)" fill="#e4e4e4"/>
  </g>
</svg>
