<svg xmlns="http://www.w3.org/2000/svg" width="1451.101" height="1158.503" viewBox="0 0 1451.101 1158.503">
  <g id="그룹_1098" data-name="그룹 1098" transform="translate(-77.375 -416.984)">
    <path id="패스_42" data-name="패스 42" d="M1126,1153.624l-351.9-634.453a9.465,9.465,0,0,0-4.7-7.583,9.356,9.356,0,0,0-5.084-1.228c-.056,0-.114,0-.171,0s-.115,0-.171,0a9.338,9.338,0,0,0-9.738,8.508L381.29,1153.624a9.459,9.459,0,0,0,16.382,9.459L763.9,539.774l345.716,623.308a9.459,9.459,0,0,0,16.383-9.459Z" transform="translate(-27.073 404.247)" fill="#3f3d56"/>
    <path id="패스_43" data-name="패스 43" d="M400.325,776.853l39.775-9.127L423.829,609.967l-58.7,13.467Z" transform="translate(278.448 672.164)" fill="#ffb6b6"/>
    <path id="패스_44" data-name="패스 44" d="M794.5,931.569l-56.6,12.985-18.1-35.37-1.025-1.254a56.283,56.283,0,0,1-12.643-34.848L659.079,748.631l-3.847-1.828a23.168,23.168,0,0,1-9.507-33.5l-4.981-13.174L500.2,700.39l-.14-.039L327.479,651.939,345.6,543.916l48.547,30.538c16-1.038,290.029-17.863,315.345,43.55,22.544,54.688,55.03,148.119,78.312,216.868a53.634,53.634,0,0,0,4.311,8.881,38.758,38.758,0,0,1,6.173,18.633,45.425,45.425,0,0,0,1.645,8.526c9.677,28.928-5.065,59.894-5.215,60.2Z" transform="translate(-84.973 441.236)" fill="#2f2e41"/>
    <path id="패스_45" data-name="패스 45" d="M528.638,776.714l12.932-2.967,45.78-32.115,31.769,14.322h0a59.16,59.16,0,0,1,70.889,44.433l.431,1.873L542.3,836.249Z" transform="translate(136.697 659.113)" fill="#2f2e41"/>
    <path id="패스_46" data-name="패스 46" d="M249.6,814.372c4.044-44.017,29.827-88.088,71.181-103.7a203.658,203.658,0,0,0,4.5,139.753c6.983,17.173,16.538,35.546,11.057,53.256-3.41,11.019-12.341,19.652-22.456,25.2s-21.448,8.4-32.639,11.193l-2.159,1.906C259.9,902.158,245.561,858.389,249.6,814.372Z" transform="translate(-171.544 624.997)" fill="#f0f0f0"/>
    <path id="패스_47" data-name="패스 47" d="M305.97,711.972a174.074,174.074,0,0,0-40.107,99.308,74.967,74.967,0,0,0,1.606,23.432A42.99,42.99,0,0,0,278.8,854.3c4.987,5.138,10.684,9.816,14.335,16.077a26.325,26.325,0,0,1,1.975,21.438c-2.763,8.826-8.532,16.133-14.422,23.082-6.54,7.717-13.455,15.627-16.018,25.66-.311,1.216-2.179.663-1.869-.551,4.459-17.456,20.932-27.819,28.438-43.653,3.5-7.389,4.8-15.878,1.051-23.438-3.278-6.612-9.148-11.441-14.243-16.6a45.879,45.879,0,0,1-11.79-18.741,69.3,69.3,0,0,1-2.5-23.284,168.887,168.887,0,0,1,10.68-51.691,177.17,177.17,0,0,1,30.2-52.047C305.437,709.594,306.767,711.019,305.97,711.972Z" transform="translate(-156.287 624.513)" fill="#fff"/>
    <path id="패스_48" data-name="패스 48" d="M275.2,767.177a26.116,26.116,0,0,1-20.748-26.706.975.975,0,0,1,1.948.034,24.184,24.184,0,0,0,19.35,24.8C276.978,765.558,276.42,767.426,275.2,767.177Z" transform="translate(-165.475 656.816)" fill="#fff"/>
    <path id="패스_49" data-name="패스 49" d="M269.268,793.618a50.338,50.338,0,0,0,21.536-29.7c.315-1.214,2.183-.662,1.869.552A52.359,52.359,0,0,1,270.2,795.328C269.141,796,268.215,794.289,269.268,793.618Z" transform="translate(-149.63 682.924)" fill="#fff"/>
    <path id="패스_50" data-name="패스 50" d="M273.2,727.677a14.781,14.781,0,0,0,13.98-1.161c1.05-.688,1.975,1.027.931,1.711a16.566,16.566,0,0,1-15.462,1.319,1.008,1.008,0,0,1-.659-1.211A.979.979,0,0,1,273.2,727.677Z" transform="translate(-146.159 642.28)" fill="#fff"/>
    <path id="패스_51" data-name="패스 51" d="M435.394,747.95c-.644.449-1.287.9-1.931,1.362a194.78,194.78,0,0,0-24.256,20.223c-.591.562-1.182,1.141-1.754,1.718A205.232,205.232,0,0,0,364.86,833.67a199.368,199.368,0,0,0-10.006,28.584c-3.6,13.49-6.424,28.4-14.044,39.587a34.411,34.411,0,0,1-2.557,3.372l-72.028,2.314c-.166-.077-.333-.138-.5-.215l-2.872.225c.1-.513.213-1.044.312-1.557.056-.3.129-.6.185-.894.043-.2.086-.4.113-.579.014-.066.029-.132.043-.182.027-.182.071-.348.1-.514q.943-4.447,1.951-8.9c0-.016,0-.016.015-.034a293.068,293.068,0,0,1,22.572-65.507c.309-.619.617-1.254.96-1.874a190.227,190.227,0,0,1,16.243-26.448,168.039,168.039,0,0,1,10.78-13.162,139.85,139.85,0,0,1,34.129-27.319c25.4-14.469,55.137-20.656,83.014-13.211C433.983,747.551,434.681,747.742,435.394,747.95Z" transform="translate(-156.187 661.934)" fill="#f0f0f0"/>
    <path id="패스_52" data-name="패스 52" d="M435.118,747.449A174.079,174.079,0,0,0,343.3,802.592a74.955,74.955,0,0,0-12.826,19.677,43,43,0,0,0-2.749,22.459c.889,7.106,2.621,14.27,1.767,21.467a26.327,26.327,0,0,1-11.33,18.307c-7.52,5.384-16.525,7.744-25.412,9.747-9.867,2.224-20.152,4.376-28.238,10.844-.98.783-2.139-.782-1.16-1.566,14.07-11.252,33.462-9.609,48.989-17.732,7.245-3.791,13.392-9.788,14.95-18.081,1.363-7.253-.416-14.642-1.378-21.828a45.878,45.878,0,0,1,1.869-22.061,69.31,69.31,0,0,1,12.022-20.1,168.879,168.879,0,0,1,39.65-34.843,177.16,177.16,0,0,1,55.448-23.374c1.218-.283,1.422,1.657.212,1.938Z" transform="translate(-156.043 663.356)" fill="#fff"/>
    <path id="패스_53" data-name="패스 53" d="M308.018,786.125a26.116,26.116,0,0,1-.487-33.815c.8-.964,2.337.235,1.535,1.2a24.184,24.184,0,0,0,.518,31.454C310.413,785.9,308.843,787.059,308.018,786.125Z" transform="translate(-113.535 670.487)" fill="#fff"/>
    <path id="패스_54" data-name="패스 54" d="M293.92,796.757A50.34,50.34,0,0,0,329,786.011c.982-.78,2.141.786,1.16,1.565a52.353,52.353,0,0,1-36.522,11.107C292.381,798.585,292.674,796.659,293.92,796.757Z" transform="translate(-123.158 707.783)" fill="#fff"/>
    <path id="패스_55" data-name="패스 55" d="M327.6,752.85a14.78,14.78,0,0,0,11.861,7.49c1.253.083.958,2.009-.286,1.928a16.566,16.566,0,0,1-13.139-8.258,1.006,1.006,0,0,1,.2-1.362.98.98,0,0,1,1.363.2Z" transform="translate(-86.76 671.043)" fill="#fff"/>
    <path id="패스_56" data-name="패스 56" d="M856.221,814.372c-4.045-44.017-29.829-88.088-71.182-103.7a203.66,203.66,0,0,1-4.5,139.753C773.557,867.6,764,885.972,769.483,903.683c3.41,11.019,12.342,19.652,22.456,25.2s21.448,8.4,32.639,11.193l2.158,1.906C845.923,902.158,860.264,858.389,856.221,814.372Z" transform="translate(400.307 624.997)" fill="#f0f0f0"/>
    <path id="패스_57" data-name="패스 57" d="M775.95,711.972a174.075,174.075,0,0,1,40.106,99.308,74.956,74.956,0,0,1-1.606,23.432A42.993,42.993,0,0,1,803.123,854.3c-4.987,5.138-10.683,9.816-14.335,16.077a26.324,26.324,0,0,0-1.975,21.438c2.763,8.826,8.532,16.133,14.422,23.082,6.539,7.717,13.455,15.627,16.018,25.66.311,1.216,2.178.663,1.868-.551-4.458-17.456-20.932-27.819-28.438-43.653-3.5-7.389-4.8-15.878-1.051-23.438,3.278-6.612,9.148-11.441,14.242-16.6a45.888,45.888,0,0,0,11.79-18.741,69.286,69.286,0,0,0,2.5-23.284A168.878,168.878,0,0,0,807.486,762.6a177.167,177.167,0,0,0-30.2-52.047c-.8-.958-2.132.467-1.334,1.419Z" transform="translate(408.956 624.513)" fill="#fff"/>
    <path id="패스_58" data-name="패스 58" d="M795.482,767.18a26.116,26.116,0,0,0,20.748-26.706.975.975,0,0,0-1.948.035,24.183,24.183,0,0,1-19.351,24.8C793.7,765.562,794.261,767.428,795.482,767.18Z" transform="translate(429.383 656.813)" fill="#fff"/>
    <path id="패스_59" data-name="패스 59" d="M802.4,793.618a50.34,50.34,0,0,1-21.536-29.7c-.315-1.214-2.183-.662-1.869.552a52.361,52.361,0,0,0,22.473,30.856C802.531,796,803.458,794.289,802.4,793.618Z" transform="translate(412.546 682.924)" fill="#fff"/>
    <path id="패스_60" data-name="패스 60" d="M794.651,727.677a14.781,14.781,0,0,1-13.979-1.161c-1.049-.688-1.975,1.027-.932,1.711a16.564,16.564,0,0,0,15.462,1.319,1.008,1.008,0,0,0,.659-1.21A.98.98,0,0,0,794.651,727.677Z" transform="translate(412.898 642.28)" fill="#fff"/>
    <path id="패스_61" data-name="패스 61" d="M714.2,747.95c.643.449,1.286.9,1.93,1.362a194.694,194.694,0,0,1,24.257,20.224c.591.562,1.181,1.14,1.754,1.718a205.24,205.24,0,0,1,42.593,62.417,199.3,199.3,0,0,1,10.006,28.583c3.6,13.491,6.424,28.4,14.044,39.588a34.2,34.2,0,0,0,2.557,3.372l72.029,2.314c.166-.076.333-.137.5-.214l2.871.224c-.1-.514-.212-1.043-.312-1.557-.057-.3-.129-.6-.185-.894-.043-.2-.086-.4-.113-.58-.014-.066-.029-.132-.043-.182-.027-.182-.071-.348-.1-.513q-.942-4.447-1.95-8.9c0-.016,0-.016-.015-.033a293.033,293.033,0,0,0-22.572-65.507c-.309-.62-.617-1.254-.96-1.874a190.094,190.094,0,0,0-16.243-26.448,168.254,168.254,0,0,0-10.78-13.162,139.806,139.806,0,0,0-34.13-27.318c-25.4-14.47-55.136-20.657-83.013-13.211C715.611,747.551,714.913,747.742,714.2,747.95Z" transform="translate(341.181 661.934)" fill="#f0f0f0"/>
    <path id="패스_62" data-name="패스 62" d="M714.689,747.449A174.078,174.078,0,0,1,806.5,802.594a74.922,74.922,0,0,1,12.825,19.675,42.981,42.981,0,0,1,2.749,22.459c-.889,7.1-2.621,14.27-1.766,21.467A26.322,26.322,0,0,0,831.64,884.5c7.52,5.384,16.526,7.744,25.412,9.746,9.868,2.223,20.151,4.376,28.239,10.844.98.783,2.139-.782,1.16-1.565-14.07-11.253-33.463-9.609-48.99-17.732-7.245-3.791-13.391-9.788-14.95-18.081-1.363-7.253.417-14.642,1.379-21.829a45.882,45.882,0,0,0-1.87-22.061A69.332,69.332,0,0,0,810,803.727a168.876,168.876,0,0,0-39.651-34.842A177.157,177.157,0,0,0,714.9,745.511c-1.219-.283-1.423,1.657-.212,1.938Z" transform="translate(340.825 663.356)" fill="#fff"/>
    <path id="패스_63" data-name="패스 63" d="M755.452,786.125a26.117,26.117,0,0,0,.488-33.815c-.8-.964-2.337.235-1.535,1.2a24.185,24.185,0,0,1-.518,31.454C753.057,785.9,754.626,787.059,755.452,786.125Z" transform="translate(384.654 670.487)" fill="#fff"/>
    <path id="패스_64" data-name="패스 64" d="M784.985,796.757a50.337,50.337,0,0,1-35.075-10.745c-.983-.78-2.142.786-1.161,1.565a52.355,52.355,0,0,0,36.522,11.107C786.523,798.585,786.23,796.659,784.985,796.757Z" transform="translate(378.842 707.783)" fill="#fff"/>
    <path id="패스_65" data-name="패스 65" d="M739.094,752.851a14.785,14.785,0,0,1-11.861,7.49c-1.253.083-.958,2.008.286,1.927a16.565,16.565,0,0,0,13.139-8.257,1.006,1.006,0,0,0-.2-1.363A.979.979,0,0,0,739.094,752.851Z" transform="translate(354.654 671.042)" fill="#fff"/>
    <circle id="타원_35" data-name="타원 35" cx="9.459" cy="9.459" r="9.459" transform="translate(1073.398 586.45)" fill="#3f3d56"/>
    <path id="패스_67" data-name="패스 67" d="M671.721,436.208,799.24,356.093a10.081,10.081,0,1,1,9.932,17.523l-134.25,68.24a3.249,3.249,0,0,1-3.2-5.648Z" transform="translate(292.693 232.558)" fill="#e4e4e4"/>
    <path id="패스_68" data-name="패스 68" d="M550,498.116a8.831,8.831,0,0,1,.145-10.069,20.793,20.793,0,0,1,8.336-6.611,69.582,69.582,0,0,1,21.754-6.874c5.759-.818,12.048-1.079,16.515-4.8,4.438-3.7,6.913-10.623,12.664-11.2,5.56-.558,9.834,5.527,15.41,5.905,6.872.465,11.371-7.577,18.058-9.227,4.476-1.1,9.079.844,13.277,2.749l25.2,11.431,12.915,5.859c4.511,2.046,9.6,4.8,10.45,9.682,1.17,6.705-6.286,11.436-12.662,13.817a203.829,203.829,0,0,1-141.094.018" transform="translate(158.581 343.159)" fill="#6c63ff"/>
    <ellipse id="타원_36" data-name="타원 36" cx="331.059" cy="47.294" rx="331.059" ry="47.294" transform="translate(415.483 870.215)" fill="#3f3d56"/>
    <rect id="사각형_1074" data-name="사각형 1074" width="264.848" height="37.835" rx="9" transform="translate(1172.19 1210.733)" fill="#3f3d56"/>
    <path id="패스_69" data-name="패스 69" d="M995.321,500.738,920.344,856.916l19.527,91.163,36.869,172.046v77.331a1.565,1.565,0,0,1-.021.315,14.585,14.585,0,0,1-.926,5H946.158a14.584,14.584,0,0,1-.925-5,1.731,1.731,0,0,1-.021-.316v-74.01L911.75,967.29l-6.77-31.529-13.095-61.1-3.783-17.7v-.021l3.741-17.74,2.88-13.684,69.744-331.249a15.764,15.764,0,0,1,30.856,6.474Z" transform="translate(532.814 372.714)" fill="#3f3d56"/>
    <path id="패스_70" data-name="패스 70" d="M802.8,668.5v340.518a1.678,1.678,0,0,1-.021.316,14.576,14.576,0,0,1-.926,5H772.218a14.579,14.579,0,0,1-.925-5,1.551,1.551,0,0,1-.021-.316V668.5a15.765,15.765,0,0,1,31.53,0Z" transform="translate(404.07 561.151)" fill="#3f3d56"/>
    <path id="패스_71" data-name="패스 71" d="M673.365,558H824.706a56.753,56.753,0,0,1,56.753,56.754H616.612A56.753,56.753,0,0,1,673.365,558Z" transform="translate(555.578 614.898)" fill="#3f3d56"/>
    <path id="패스_72" data-name="패스 72" d="M1051.884,729.265H787.037a15.765,15.765,0,1,1,0-31.53h264.847a15.765,15.765,0,1,1,0,31.53Z" transform="translate(404.071 610.739)" fill="#3f3d56"/>
    <rect id="사각형_1075" data-name="사각형 1075" width="304.976" height="43.568" rx="9" transform="translate(510.07 1249.142) rotate(180)" fill="#3f3d56"/>
    <path id="패스_73" data-name="패스 73" d="M379.789,884.646l-4.835,19.926-17.741,72.98-7.65,31.53-35.524,146.254V1218.8a15.541,15.541,0,0,1-2.648,8.724,15.226,15.226,0,0,1-5.4,5H290.56a15.222,15.222,0,0,1-5.4-5,15.539,15.539,0,0,1-2.649-8.723v-67.241l39.476-162.483L347.46,884.142,261.07,473.733a15.754,15.754,0,1,1,30.836-6.474L371.76,846.517,375.438,864l4.287,20.389Z" transform="translate(-158.527 342.966)" fill="#3f3d56"/>
    <path id="패스_74" data-name="패스 74" d="M468.442,667.41v334.4a15.53,15.53,0,0,1-2.649,8.722,15.217,15.217,0,0,1-5.4,5h-15.45a15.333,15.333,0,0,1-5.382-5,15.54,15.54,0,0,1-2.648-8.722V667.41a15.765,15.765,0,0,1,31.53,0Z" transform="translate(35.618 559.95)" fill="#3f3d56"/>
    <path id="패스_75" data-name="패스 75" d="M0,0H304.976V8.6a56.753,56.753,0,0,1-56.753,56.753H56.753A56.753,56.753,0,0,1,0,8.6Z" transform="translate(510.07 1227.358) rotate(180)" fill="#3f3d56"/>
    <path id="패스_76" data-name="패스 76" d="M612.558,734.992H307.582a15.765,15.765,0,1,1,0-31.53H612.558a15.765,15.765,0,0,1,0,31.53Z" transform="translate(-124.271 617.05)" fill="#3f3d56"/>
    <path id="패스_77" data-name="패스 77" d="M495.083,789.566,461.95,773.72l45.514-138.5,48.9,23.387Z" transform="translate(385.146 699.995)" fill="#9e616a"/>
    <path id="패스_78" data-name="패스 78" d="M630.284,776.337l-35.628,8.79L543.033,648.821l52.586-12.976Z" transform="translate(474.497 700.68)" fill="#9e616a"/>
    <path id="패스_79" data-name="패스 79" d="M675.437,524.152a34.542,34.542,0,0,0,46.794,11.739,33.094,33.094,0,0,0,4.44-3.218l104.754,60.115-4.55-61.709L728.1,483.454a34.414,34.414,0,0,0-41.745-5.437,33.118,33.118,0,0,0-10.915,46.135Z" transform="translate(292.784 363.44)" fill="#9e616a"/>
    <path id="패스_80" data-name="패스 80" d="M725.519,631.522l18.517,11.285L827.2,693.52a49.036,49.036,0,0,0,67.6-15.6,47.984,47.984,0,0,0,6.115-33.869L863.957,459.382A51.24,51.24,0,0,0,796.693,420.5a48.785,48.785,0,0,0-30.781,59.266l38.649,131.052-59.244-27.621Z" transform="translate(353.653 302.071)" fill="#ab4f4f"/>
    <path id="패스_81" data-name="패스 81" d="M734.581,993.042,677.567,878.7l.007-.262L683.2,668.709c.07-1.866.221-3.739.448-5.583a63.8,63.8,0,0,1,24.273-42.933,61.3,61.3,0,0,1,45.725-12.505l163.029,21.1,5.654-23.118,1.053-.384,156.207-57.247.9,1.466c20.457,33.288,34.76,99.78,38.656,119.366l.055.282c.082.413.132.663.15.735,8.041,33.423-25.186,88.79-58.286,97.111-69.723,17.771-132.078,3.91-204.281-12.145C830.9,749.093,804.139,743.142,774.664,738l.875,17.346a130.007,130.007,0,0,0,8.225,39.018c5.255,15.391,9.406,27.549.628,52.9l-4.246,12.262a41.8,41.8,0,0,1-4.3,37.055l-.854,1.3,37.6,95.143Z" transform="translate(300.812 445.776)" fill="#2f2e41"/>
    <path id="패스_82" data-name="패스 82" d="M695.769,959.705l-67.988-6.32,24.086-77.03a502.951,502.951,0,0,1,37.151-146.123l32.854-77.86c.076-1.733.222-3.477.434-5.185a63.785,63.785,0,0,1,24.274-42.933,61.336,61.336,0,0,1,45.724-12.5l162.788,21.067,7.091-59.509L1118.43,532.4l.715,1.164c27.311,44.436,44.649,79.222,54.565,109.478.5,1.542.941,3.117,1.318,4.685,8.1,33.649-12.115,67.764-45.053,76.046-83.941,21.4-184.883,20.808-317.6-1.879l-64.23,152.855a234.749,234.749,0,0,1-22.687,41.61Z" transform="translate(245.948 428.545)" fill="#2f2e41"/>
    <ellipse id="타원_37" data-name="타원 37" cx="78.755" cy="80.51" rx="78.755" ry="80.51" transform="translate(1100.113 455.57)" fill="#9e616a"/>
    <path id="패스_83" data-name="패스 83" d="M847.3,790.992,836,750.51l-2.779-19.969-16.241.542-31.877-73.576-12.38-19.4q-3.787-3.987-6.862-7.669a172.824,172.824,0,0,1-30.594-49.265,129.418,129.418,0,0,1-8.956-40.57C724,499.493,741.333,456,779.3,407.644a22.8,22.8,0,0,1-1.236-5.3,22.429,22.429,0,0,1,19.5-24.832l36.615-4.112a21.616,21.616,0,0,1,16.024,4.672,22.47,22.47,0,0,1,8.3,15.251,22.969,22.969,0,0,1-2.59,13.283,97.781,97.781,0,0,1,81.157,68.29,649.426,649.426,0,0,1,52.089,128.654c2.506,8.74,1.391,17.745.311,26.454-1,8.045-2.028,16.363-.294,24.654,1.763,8.432,6.005,16.891,10.5,25.847,5.144,10.257,10.464,20.864,11.9,31.675l.1.759Z" transform="translate(354.305 253.18)" fill="#ab4f4f"/>
    <path id="패스_84" data-name="패스 84" d="M730.931,526.363a172.272,172.272,0,0,0,30.428,48.987c2.2,2.622,4.515,5.2,6.943,7.78l12.458,19.547c45.925-34.423,83.133-169.96,83.133-169.96l-51.816-10.08Z" transform="translate(359.617 307.591)" opacity="0.2"/>
    <path id="패스_85" data-name="패스 85" d="M750.206,380.918a34.621,34.621,0,0,1-11.691,46.852,33.187,33.187,0,0,1-4.93,2.418l3.668,120.726L684.973,518l4.533-109.6a34.525,34.525,0,0,1,14.87-39.439,33.04,33.04,0,0,1,45.83,11.951Z" transform="translate(308.973 243.192)" fill="#9e616a"/>
    <path id="패스_86" data-name="패스 86" d="M742.172,460.6l-57.493,8.175,2.472,119.059A49.816,49.816,0,0,0,711.5,629.813h0a47.731,47.731,0,0,0,57.015-6.473L904.255,492.782a51.465,51.465,0,0,0,3.792-70.669h0a48.808,48.808,0,0,0-69.927-4.788,50.2,50.2,0,0,0-3.822,3.807L744.671,524.238Z" transform="translate(308.649 287.938)" fill="#ab4f4f"/>
    <path id="패스_87" data-name="패스 87" d="M330.108,808.089l40.807,0,19.414-157.4-60.228,0Z" transform="translate(239.853 717.031)" fill="#ffb6b6"/>
    <circle id="타원_38" data-name="타원 38" cx="81.448" cy="81.448" r="81.448" transform="translate(257.206 456.032)" fill="#ffb6b6"/>
    <path id="패스_88" data-name="패스 88" d="M728,1022.087H670.212l-14.733-19.748-3.987-18.605-3.433-3.322a28.646,28.646,0,0,1-4.83-35.23l-41.881-195.4c-10.969-.964-134.672-12.025-220.66-27.243-22.007-3.894-39.189-14.591-51.068-31.794-29.191-42.273-16.687-110.671-16.557-111.357l.144-.763.771-.087,200.853-22.544.27.128c6.665,3.157,163.536,77.629,189.171,103.264,11.576,11.576,37.4,80.352,43.184,153.472,1.036,13.1-2.691,26.439-6.3,39.34-3.372,12.071-6.86,24.553-6.171,36.353,1.063,18.206,2.07,37.3,2.995,56.764.147,3.1,2.484,6.31,4.743,9.413,2.36,3.242,4.59,6.3,4.731,9.509,1.373,31.074-18.937,57.191-19.143,57.45Z" transform="translate(-103.913 454.545)" fill="#2f2e41"/>
    <path id="패스_89" data-name="패스 89" d="M571.242,434.72a31.027,31.027,0,0,0-39.082,27.13L464.485,483l2.823,44.26,95.149-31.212a31.2,31.2,0,0,0,8.785-61.33Z" transform="translate(66.003 319.695)" fill="#ffb6b6"/>
    <path id="패스_90" data-name="패스 90" d="M644.646,545.591l-50.578,19.143-1.293,2.509A25.518,25.518,0,0,1,558.4,578.233h0L444.719,621.261S393.95,570.456,357.8,525.116l12.319-75.772a145.164,145.164,0,0,1,17.89-49.871c74.128,16.255,116.68,119.88,116.68,119.88l133.6-25.491Z" transform="translate(-51.556 282.065)" fill="#6c63ff"/>
    <path id="패스_91" data-name="패스 91" d="M417.125,461.7c-20.39,5.507-42.87-1.815-58.783-15.7s-25.867-33.567-31.6-53.895c-4.2-14.887-6.192-31.413.437-45.389s24.468-23.406,38.232-16.346c-8.491-9.892-4.249-26.254,5.668-34.716s23.533-10.889,36.5-12.215c18.821-1.925,38.263-2.14,56.173,3.957s34.183,19.429,39.788,37.5a28.54,28.54,0,0,0,34.041-7.685,25.856,25.856,0,0,1-14.247,28.036l27.441-8.9c4.72,9.989-3.55,22.353-14.124,25.551s-21.99-.3-32.025-4.919-19.76-10.465-30.66-12.267-23.7,1.7-28.746,11.53c-2.641,5.149-2.779,11.179-4.312,16.759s-5.417,11.365-11.186,11.822c-3.645.288-7.213-1.653-10.847-1.256-4.506.492-7.954,4.574-9.154,8.944a34.317,34.317,0,0,0-.033,13.5l6.97,53.281" transform="translate(-90.045 152.873)" fill="#2f2e41"/>
    <path id="패스_92" data-name="패스 92" d="M342.053,899.308a.226.226,0,0,1-.046,0l-.644-.11-.186-.626c-2.342-7.877-5.322-15.938-8.2-23.736a286.23,286.23,0,0,1-10.731-33.077,253.339,253.339,0,0,1-4.742-32.561c-.8-7.946-1.635-16.163-3.049-24.251-.628-3.591,1.751-6.992,4.051-10.282,2.133-3.049,4.148-5.93,3.725-8.655-.432-2.787-3.523-5.847-6.511-8.807-3.276-3.244-6.663-6.6-7.143-10.13a1009.145,1009.145,0,0,1-9.093-145.379c.675-67.264,3.715-113.113,9.035-136.273,14.306-62.275,80.4-73.64,90.743-75.043a22.845,22.845,0,0,1,30.9-12.741l46.959,21.5a76.452,76.452,0,0,1,40.648,45.4l6.976,21.267,3.494,142.764L508.867,709.091,546.7,765.844C345.053,876.554,342.7,899.308,342.053,899.308Z" transform="translate(-115.879 255.712)" fill="#6c63ff"/>
    <path id="패스_93" data-name="패스 93" d="M472.817,804.3h13.268l51.8-21.066L565.649,804.3h0a59.162,59.162,0,0,1,59.159,59.155v1.927l-151.992.006Z" transform="translate(75.184 704.957)" fill="#2f2e41"/>
    <path id="패스_94" data-name="패스 94" d="M588.971,484.85a31.026,31.026,0,0,0-44.807,15.994l-70.847,2.762-9.545,33,100.72,5.156a31.2,31.2,0,0,0,24.481-56.913Z" transform="translate(65.217 371.443)" fill="#ffb6b6"/>
    <path id="패스_95" data-name="패스 95" d="M655.689,619.394l-72.776-.907-9.212-.125L425.637,616.5s-40.209-38.359-75.22-77.852l4.907-35.494a145.017,145.017,0,0,1,48.623-89.787c50.145,33.506,79.224,99.828,79.224,99.828l48.759,21.818h0A213.477,213.477,0,0,1,629.4,563.555l16.035,9.289Z" transform="translate(-59.695 297.371)" fill="#6c63ff"/>
    <path id="패스_96" data-name="패스 96" d="M814.168,851.773l-24.215,5.977-9.965-21.795-5.427,25.593L710.338,877.4a14.87,14.87,0,0,1-14.7-24.292l42.545-48.078-5.7-23.112,54.739-10.092Z" transform="translate(316.611 692.381)" fill="#2f2e41"/>
    <path id="패스_97" data-name="패스 97" d="M684.789,868.229,661.7,858.8l4.777-23.483-19.455,17.492-61.245-25a14.87,14.87,0,0,1,2.42-28.29l62.7-13.814,9-22.04,50.189,24.068Z" transform="translate(189.463 683.399)" fill="#2f2e41"/>
    <path id="패스_98" data-name="패스 98" d="M639.911,548.508H620.993a76.81,76.81,0,0,1-76.722-76.722v-1.051H716.632v1.051A76.808,76.808,0,0,1,639.911,548.508Z" transform="translate(153.924 360.593)" fill="#e4e4e4"/>
    <path id="패스_99" data-name="패스 99" d="M590.69,462.694c0,5.224-9.459,9.459-9.459,9.459s-9.46-4.235-9.46-9.459,9.46-9.459,9.46-9.459S590.69,457.47,590.69,462.694Z" transform="translate(184.229 341.309)" fill="#3f3d56"/>
    <path id="패스_100" data-name="패스 100" d="M617.69,462.694c0,5.224-9.459,9.459-9.459,9.459s-9.459-4.235-9.459-9.459,9.459-9.459,9.459-9.459S617.69,457.47,617.69,462.694Z" transform="translate(213.982 341.309)" fill="#3f3d56"/>
    <path id="패스_101" data-name="패스 101" d="M599.69,471.694c0,5.224-9.458,9.459-9.458,9.459s-9.459-4.234-9.459-9.459,9.459-9.459,9.459-9.459S599.69,466.47,599.69,471.694Z" transform="translate(194.147 351.227)" fill="#3f3d56"/>
    <circle id="타원_39" data-name="타원 39" cx="9.459" cy="9.459" r="9.459" transform="translate(718.166 765.117)" fill="#3f3d56"/>
    <path id="패스_102" data-name="패스 102" d="M494.763,434.08l149.182,20.6a10.081,10.081,0,1,1-3.656,19.807l-146.7-34.026a3.249,3.249,0,0,1,1.179-6.384Z" transform="translate(95.297 320.167)" fill="#e4e4e4"/>
    <path id="패스_106" data-name="패스 106" d="M1033.882,357.791c-13.387-15.611-19.751-36.323-30.453-54.05s-29.325-33.593-49-29.468c-13.562,2.844-24.043,14.811-29.349,28.154s-6.3,28.056-7.229,42.471c.329-29.622-19.187-58.34-46.072-67.792S812.725,278.2,795.832,302a41.05,41.05,0,0,0-54.522-1.145c-15.11,13.5-18.454,39.209-7.341,56.434s35.178,23.643,52.837,14.089l6.243,5.743c-3.514,12.291,3.3,26.81,14.756,31.437,9.291,3.753,22.4,3.128,25.882,12.877,2.428,6.812-2.112,14.082-6.942,19.317S816.182,451.386,815.6,458.63c-.877,10.929,10.417,18.585,20.684,20.89,24.755,5.56,52.223-5.9,66.492-27.751q.412-.632.9-1.266a95.6,95.6,0,0,0,19.23-73.1c-.8-5.049.006-8.8,3.486-10,15.047-5.169,57.205,5.68,69.964,15.484s22.978,22.779,35.267,33.217,27.952,18.488,43.556,15.645c12.5-2.276,23.13-11.349,30.282-22.294s11.266-23.7,14.953-36.379C1092.777,389.045,1054.954,382.363,1033.882,357.791Z" transform="translate(355.727 143.372)" fill="#2f2e41"/>
  </g>
</svg>
